# xmcd
#
# Track frame offsets:
#	150
#	28675
#	47800
#	69575
#	87200
#	135562
#	156712
#	174712
#	201725
#	215450
#	233250
#	248837
#	261600
#	276350
#
# Disc length: 3987
#
# Revision: 4
# Processed by: cddbd v1.5.1PL0 Copyright (c) Steve Scherf et al.
# Submitted via: ExactAudioCopy v0.95a4
# Normalized: r2:TSWAP
#
DISCID=d90f910e
DTITLE=Various Artist - Jazz Moods Volume 2 Quietness
DYEAR=1995
DGENRE=Jazz
TTITLE0=Miles Davis - Something Dreamed Last Night
TTITLE1=Abbey Lincoln - Lost in the Stars
TTITLE2=Red Garland Trio - Summertime
TTITLE3=Ella Fitzgerald - Tennesse Waltz
TTITLE4=John Coltrane - Stardust
TTITLE5=Sarah Vaughan - Midnight Sun
TTITLE6=Stephane Grappelli and McCoy Tyner - I Want To Talk About You
TTITLE7=Ruth Brown - Good Morning Heartache
TTITLE8=Elmo Hope - Tranguility
TTITLE9=Etta Jones - If I Had You
TTITLE10=Milt Jackson - Moody Blue
TTITLE11=Barbara Lea - A Straw Hat Full of Lilacs
TTITLE12=Coleman Hawkins - GreenSleeves
TTITLE13=Chet Baker - Everything Happens To Me
EXTD=
EXTT0=
EXTT1=
EXTT2=
EXTT3=
EXTT4=
EXTT5=
EXTT6=
EXTT7=
EXTT8=
EXTT9=
EXTT10=
EXTT11=
EXTT12=
EXTT13=
PLAYORDER=
